<svg width="128" height="128" viewBox="0 0 128 128" fill="none" xmlns="http://www.w3.org/2000/svg">
<g clip-path="url(#clip0_1_3)">
<rect width="128" height="128" fill="white"/>
<rect x="-21" y="-17" width="188" height="157" fill="#3AF613"/>
<path d="M74.952 35.216C68.52 35.216 63.528 37.616 59.496 42.128L58.536 42.224L59.592 36.464H41.544L28.968 108.08H46.92L51.816 80.24L52.872 80.144C55.272 84.656 59.592 87.248 66.024 87.248C78.984 87.248 89.64 77.072 92.328 61.424C95.208 45.392 88.104 35.216 74.952 35.216ZM66.504 50.288C72.168 50.288 75.528 54.896 74.472 61.04C73.32 67.376 68.232 72.176 62.28 72.176C56.616 72.176 53.352 67.568 54.408 61.424C55.464 55.088 60.648 50.288 66.504 50.288Z" fill="black"/>
</g>
<defs>
<clipPath id="clip0_1_3">
<rect width="128" height="128" fill="white"/>
</clipPath>
</defs>
</svg>
